HIERARCHY
ROOT Hips
{
  OFFSET 0 0 0
  CHANNELS 6 Xposition Yposition Zposition Zrotation Yrotation Xrotation
  JOINT LeftThigh
  {
    OFFSET 8.409438 0 -5.917753
    CHANNELS 3 Zrotation Yrotation Xrotation
    JOINT LeftLeg
    {
      OFFSET 0 0 -42.358652
      CHANNELS 3 Zrotation Yrotation Xrotation
      JOINT LeftFoot
      {
        OFFSET 0 0 -39.357303
        CHANNELS 3 Zrotation Yrotation Xrotation
      }
    }
  }
  JOINT RightThigh
  {
    OFFSET -8.409438 0 -5.917753
    CHANNELS 3 Zrotation Yrotation Xrotation
    JOINT RightLeg
    {
      OFFSET 0 0 -42.358652
      CHANNELS 3 Zrotation Yrotation Xrotation
      JOINT RightFoot
      {
        OFFSET 0 0 -39.357303
        CHANNELS 3 Zrotation Yrotation Xrotation
      }
    }
  }
  JOINT SpineLow
  {
    OFFSET 0 0 4.719101
    CHANNELS 3 Zrotation Yrotation Xrotation
    JOINT SpineMid
    {
      OFFSET 0 0 12.899191
      CHANNELS 3 Zrotation Yrotation Xrotation
      JOINT Chest
      {
        OFFSET 0 0 12.899191
        CHANNELS 3 Zrotation Yrotation Xrotation
        JOINT LeftShoulder
        {
          OFFSET 7.550562 1.41573 9.438202
          CHANNELS 3 Zrotation Yrotation Xrotation
          JOINT LeftArm
          {
            OFFSET 9.155056 0 4.247191
            CHANNELS 3 Zrotation Yrotation Xrotation
            JOINT LeftForearm
            {
              OFFSET 0 0 25.771955
              CHANNELS 3 Zrotation Yrotation Xrotation
              JOINT LeftHand
              {
                OFFSET 0 0 25.197169
                CHANNELS 3 Zrotation Yrotation Xrotation
              }
            }
          }
        }
        JOINT RightShoulder
        {
          OFFSET -7.550562 1.41573 9.438202
          CHANNELS 3 Zrotation Yrotation Xrotation
          JOINT RightArm
          {
            OFFSET -9.155056 0 4.247191
            CHANNELS 3 Zrotation Yrotation Xrotation
            JOINT RightForearm
            {
              OFFSET 0 0 -25.771955
              CHANNELS 3 Zrotation Yrotation Xrotation
              JOINT RightHand
              {
                OFFSET 0 0 -25.197169
                CHANNELS 3 Zrotation Yrotation Xrotation
              }
            }
          }
        }
        JOINT Neck
        {
          OFFSET 0 0 15.101124
          CHANNELS 3 Zrotation Yrotation Xrotation
          JOINT Head
          {
            OFFSET 0 0 11.325843
            CHANNELS 3 Zrotation Yrotation Xrotation
            End Site
            {
              OFFSET 0 0 14.157303
            }
          }
        }
      }
    }
  }
}
MOTION
Frames: 8
Frame Time: 0.0
0.0  89.887642  0.0  26.261348  -67.393267  -121.232964  37.812353  -24.737227  -27.396969  20.650546  22.800162  74.320797  -1.236632  -0.949093  -0.760841  -13.305847  14.678499  -34.30003  26.646917  6.957484  57.492515  14.740001  4.34478  -4.421954  2.304401  2.878986  1.39928  6.490995  7.724154  4.113362  6.490996  7.724155  4.113362  -15.185457  15.4666  6.420167  -96.373839  57.957346  -74.484484  -40.572638  -3.423927  79.163755  51.670521  -23.61571  19.764885  -5.193869  -6.446145  21.250385  138.201699  29.850778  47.055397  -11.621953  -0.324768  -80.949213  90.069793  12.15869  -27.457817  10.649528  -9.894071  1.287258  7.988209  -7.400876  1.13741  
0.0  89.887642  0.0  28.233501  -68.23165  -123.13357  38.563709  -25.013213  -26.819744  21.310902  21.993677  74.148466  -1.964314  -0.964671  -1.083417  -10.400391  15.193593  -34.432338  25.0374  6.610111  58.810056  13.769725  4.682821  -4.658695  2.438407  2.954541  1.396129  6.864278  7.921873  4.128938  6.864278  7.921873  4.128938  -15.178386  15.418587  6.370365  -95.919652  57.384428  -74.599978  -40.479986  -3.184074  79.067482  51.480833  -23.394879  20.27079  -5.684575  -6.672785  21.014831  138.309262  29.795754  46.91884  -11.442348  -0.444493  -80.726955  90.034382  11.952624  -26.77123  10.706626  -9.726942  1.056419  8.027524  -7.27941  0.96265  
0.0  89.887642  0.0  29.587789  -68.674759  -124.493883  39.074584  -25.289972  -26.209368  21.741378  21.535101  73.567168  -2.364724  -0.873893  -1.258594  -7.821658  15.911576  -34.602064  22.679813  7.264922  59.930343  13.718751  4.780391  -4.86216  2.465858  2.96265  1.329022  6.932266  7.949357  3.949147  6.932266  7.949357  3.949147  -15.29523  15.798409  6.900094  -95.048818  56.688971  -74.672356  -40.366099  -3.006351  79.008467  51.335361  -23.320199  20.594281  -5.724243  -6.587243  21.098362  138.603606  29.587849  46.886334  -11.509987  -0.816335  -80.381916  89.709028  11.45871  -25.768499  10.794787  -9.468902  1.069176  8.094259  -7.085473  0.969047  
0.0  89.887642  0.0  30.196835  -68.773377  -125.038875  39.701614  -25.679386  -25.828289  21.951745  21.872556  72.862942  -2.374233  -0.661916  -1.255484  -6.686199  16.628451  -34.964144  21.278889  8.081415  60.394675  14.238505  4.421288  -5.064888  2.369876  2.933269  1.225198  6.654345  7.885856  3.649707  6.654345  7.885856  3.649707  -15.272919  16.450684  7.519573  -94.043022  56.196076  -74.697412  -40.320678  -2.943055  79.031951  51.199335  -23.270175  20.734018  -5.395694  -6.371114  21.292626  139.165618  29.275166  47.049246  -11.761932  -1.432675  -80.024403  89.366816  10.919657  -24.819416  11.040347  -9.167445  1.148206  8.279862  -6.857562  1.026609  
0.0  89.887642  0.0  29.982884  -68.775305  -124.670969  40.86447  -26.379193  -26.160937  22.76721  22.266834  73.035505  -2.803449  -0.834429  -1.353177  -6.791888  17.037426  -35.324847  20.318258  8.646909  60.324373  14.978815  4.175979  -5.253618  2.231486  2.872541  1.114624  6.257427  7.738798  3.323719  6.257427  7.738798  3.323719  -15.125456  17.133049  7.974614  -93.290383  56.030002  -74.683768  -40.371785  -2.879924  79.082932  51.019475  -23.202662  20.747577  -4.646577  -6.114686  21.496315  139.60105  29.074446  47.383343  -12.092759  -2.338257  -79.787466  89.245045  10.439977  -23.937844  11.264827  -8.947856  1.265278  8.450035  -6.690342  1.113628  
0.0  89.887642  0.0  27.845084  -68.277387  -122.60608  41.586707  -26.872789  -26.857845  23.116261  21.883987  73.297016  -3.426532  -0.797142  -1.535736  -8.25713  17.039103  -35.517917  20.131077  8.384892  59.983949  15.191731  3.967433  -5.358498  2.027804  2.775709  1.059264  5.686112  7.490049  3.138959  5.686112  7.490049  3.138959  -14.751501  17.543864  8.312022  -93.328392  56.173396  -74.683798  -40.509229  -2.695361  79.093212  50.932157  -23.12948  20.743508  -4.171558  -6.008403  21.75364  140.519231  28.534575  47.939346  -12.877237  -3.321234  -79.480564  89.360151  10.073847  -23.172116  11.303075  -8.880024  1.313042  8.479484  -6.638507  1.148707  
0.0  89.887642  0.0  26.990858  -68.280424  -121.779747  43.456843  -27.0393  -27.72569  22.464075  21.828971  73.183321  -3.617946  -0.559786  -1.488205  -8.896053  16.995758  -35.640786  20.116356  7.730846  59.860154  14.86099  3.984723  -5.473513  2.005086  2.734783  1.026796  5.617697  7.382249  3.043568  5.617697  7.382248  3.043568  -14.78276  17.635132  8.69541  -93.644015  56.306919  -74.683602  -40.70466  -2.47819  79.031564  50.892796  -22.972713  20.898244  -4.108751  -5.996136  21.9615  140.572853  28.601521  48.17191  -12.868248  -4.071976  -79.396447  89.58748  9.757818  -22.739877  11.122342  -8.996604  1.355021  8.34464  -6.72552  1.179593  
0.0  89.887642  0.0  26.50984  -68.429985  -121.234585  45.585686  -27.169139  -28.693955  21.62876  22.298938  73.08557  -3.628351  -0.463883  -1.423642  -9.367048  16.711193  -35.911538  20.232057  7.17211  59.959117  14.265116  4.047934  -5.569407  2.034304  2.705806  0.993974  5.692518  7.304582  2.954125  5.692518  7.304582  2.954125  -14.917497  17.630856  8.970549  -94.214153  56.574354  -74.637826  -40.911873  -2.471611  78.837196  50.761821  -22.771268  21.282555  -4.078011  -6.026079  22.2201  140.409484  28.713832  48.334546  -12.788084  -4.563552  -79.283191  89.940888  9.484074  -22.476571  10.836049  -9.168932  1.387912  8.130601  -6.854737  1.20299  
